<?xml version="1.0" encoding="UTF-8"?>
<!DOCTYPE svg PUBLIC "-//W3C//DTD SVG 1.1//EN" "http://www.w3.org/Graphics/SVG/1.1/DTD/svg11.dtd">
<!-- Creator: CorelDRAW X7 -->
<svg xmlns="http://www.w3.org/2000/svg" xml:space="preserve" width="71.22mm" height="35.69mm" version="1.1" style="shape-rendering:geometricPrecision; text-rendering:geometricPrecision; image-rendering:optimizeQuality; fill-rule:evenodd; clip-rule:evenodd"
viewBox="0 0 7122 3569"
 xmlns:xlink="http://www.w3.org/1999/xlink">
 <defs>
  <style type="text/css">
   <![CDATA[
    .str0 {stroke:#FFED00;stroke-width:141.11}
    .fil0 {fill:none}
   ]]>
  </style>
 </defs>
 <g id="Layer_x0020_1">
  <metadata id="CorelCorpID_0Corel-Layer"/>
  <path class="fil0 str0" d="M6944 1725c-282,62 -563,84 -847,66 -388,-26 75,-210 249,-293 426,-205 515,-363 469,-547 -52,-210 -392,-368 -768,-428 -284,-45 -571,2 -721,38 -373,87 -140,1297 -130,1615 12,98 4,881 50,1046 78,278 -7,-1155 -16,-1256 -23,-378 -71,-766 -94,-1144l-2 -43c-9,-341 244,-100 -9,358 -222,403 -565,514 -1043,478 -123,-9 -245,-32 -367,-48l-43 -6c-142,-18 -69,75 65,64 877,-79 1170,-823 420,-1084 -266,-93 -464,-73 -629,-51 -626,81 -527,843 -485,1756 6,121 43,1231 78,1234 1,0 16,-28 8,-186 -33,-723 -153,-2803 -91,-2720 236,-41 -235,981 -583,1106 -234,116 -418,44 -558,-201 -135,-413 -205,-846 -226,-1292 341,-101 332,1599 -684,1719 -182,22 -243,4 -395,-96 -969,-638 -63,-2171 926,-1593 65,38 106,72 162,121"/>
 </g>
</svg>
